# xmcd
#
# Track frame offsets: 
#        150
#        12078
#        23105
#        34483
#        47981
#        58238
#        67355
#        78294
#        87911
#        100243
#        110655
#        122253
#        135043
#        149256
#        158413
#        169916
#        185749
#        196658
#
# Disc length: 2751 seconds
#
# Revision: 0
# Processed by: cddbd v1.5.2PL0 Copyright (c) Steve Scherf et al.
# Submitted via: ExactAudioCopy v1.0b3
#
DISCID=f10abd12
DTITLE=The Du Droppers - The Ultimate Du-Droppers [CD2]
DYEAR=1900
DGENRE=R&B
TTITLE0=Boot' Em Up
TTITLE1=Let Nature Take Its Course
TTITLE2=Talk That Talk
TTITLE3=Give Me Some Consideration
TTITLE4=You're Mine Already
TTITLE5=I Wanna Love You
TTITLE6=I Only Had a Little
TTITLE7=Honey Bunch
TTITLE8=Smack Dab in the Middle
TTITLE9=That's All I Need
TTITLE10=A Story Untold
TTITLE11=Confusion Blues (Big John Greer)
TTITLE12=My Thrill Girl
TTITLE13=Bamalam
TTITLE14=Drink Up
TTITLE15=Ten Past Midnight
TTITLE16=If You Just Don't Leave
TTITLE17=I Only Had a Little (Fust version)
EXTD=
EXTT0=
EXTT1=
EXTT2=
EXTT3=
EXTT4=
EXTT5=
EXTT6=
EXTT7=
EXTT8=
EXTT9=
EXTT10=
EXTT11=
EXTT12=
EXTT13=
EXTT14=
EXTT15=
EXTT16=
EXTT17=
PLAYORDER=
